<?xml version="1.0" encoding="iso-8859-1"?>
<!-- Generator: Adobe Illustrator 19.0.0, SVG Export Plug-In . SVG Version: 6.00 Build 0)  -->
<svg version="1.1" id="Layer_1" xmlns="http://www.w3.org/2000/svg" xmlns:xlink="http://www.w3.org/1999/xlink" x="0px" y="0px"
	 viewBox="0 0 512.107 512.107" style="enable-background:new 0 0 512.107 512.107;" xml:space="preserve">
<g>
	<g>
		<path d="M384,133.338c-59.2,0-98.773,62.187-136.96,122.24c-35.2,55.253-71.573,112.427-119.04,112.427
			c-58.88,0-106.667-47.787-106.667-106.667S69.12,154.671,128,154.671c46.827,0,75.2,39.467,83.733,53.333h-62.08
			c-5.333,0-10.133,3.84-10.88,9.067c-0.96,6.613,4.16,12.267,10.56,12.267h85.333c5.867,0,10.667-4.8,10.667-10.667v-85.013
			c0-5.333-3.84-10.133-9.067-10.88c-6.613-0.96-12.267,4.16-12.267,10.56v54.507c-14.613-20.587-46.293-54.613-96-54.613
			C57.28,133.338,0,190.618,0,261.338s57.28,128,128,128c59.2,0,98.773-62.187,136.96-122.24
			c35.2-55.253,71.467-112.427,119.04-112.427c58.88,0,106.667,47.787,106.667,106.667S442.88,368.005,384,368.005
			c-56.96,0-85.653-46.187-86.827-48.107c-2.987-5.013-9.6-6.72-14.613-3.627c-5.013,3.093-6.72,9.6-3.627,14.613
			c1.387,2.347,35.84,58.56,105.173,58.56c70.72,0,128-57.28,128-128C512.107,190.725,454.72,133.338,384,133.338z"/>
	</g>
</g>
<g>
</g>
<g>
</g>
<g>
</g>
<g>
</g>
<g>
</g>
<g>
</g>
<g>
</g>
<g>
</g>
<g>
</g>
<g>
</g>
<g>
</g>
<g>
</g>
<g>
</g>
<g>
</g>
<g>
</g>
</svg>
